<svg width="36" height="36" viewBox="0 0 49 48" fill="none" xmlns="http://www.w3.org/2000/svg">
<!--<rect x="1.5" y="1" width="46" height="46" rx="4" stroke="#D5A845" stroke-width="2"/>-->
<path fill-rule="evenodd" clip-rule="evenodd" d="M34.0834 11.2222H38.0764C39.3973 11.2222 40.4723 12.2972 40.4723 13.6181V35.9792C40.4723 37.3001 39.3973 38.375 38.0764 38.375H10.9237C9.60276 38.375 8.52783 37.3001 8.52783 35.9792V13.6181C8.52783 12.2972 9.60276 11.2222 10.9237 11.2222H14.9167V10.4236C14.9167 9.98278 15.2745 9.625 15.7153 9.625C16.1562 9.625 16.5139 9.98278 16.5139 10.4236V11.2222H32.4862V10.4236C32.4862 9.98278 32.8439 9.625 33.2848 9.625C33.7256 9.625 34.0834 9.98278 34.0834 10.4236V11.2222ZM14.9167 12.8194H10.9237C10.4828 12.8194 10.1251 13.1772 10.1251 13.6181V17.6111H38.8751V13.6181C38.8751 13.1772 38.5173 12.8194 38.0764 12.8194H34.0834V15.2153C34.0834 15.6561 33.7256 16.0139 33.2848 16.0139C32.8439 16.0139 32.4862 15.6561 32.4862 15.2153V12.8194H16.5139V15.2153C16.5139 15.6561 16.1562 16.0139 15.7153 16.0139C15.2745 16.0139 14.9167 15.6561 14.9167 15.2153V12.8194ZM38.0764 36.7778H10.9237C10.4828 36.7778 10.1251 36.42 10.1251 35.9792V19.2083H38.8751V35.9792C38.8751 36.42 38.5173 36.7778 38.0764 36.7778ZM18.9098 24H20.507C20.9478 24 21.3056 23.6422 21.3056 23.2014C21.3056 22.7606 20.9478 22.4028 20.507 22.4028H18.9098C18.4689 22.4028 18.1112 22.7606 18.1112 23.2014C18.1112 23.6422 18.4689 24 18.9098 24ZM25.2987 24H23.7014C23.2606 24 22.9028 23.6422 22.9028 23.2014C22.9028 22.7606 23.2606 22.4028 23.7014 22.4028H25.2987C25.7395 22.4028 26.0973 22.7606 26.0973 23.2014C26.0973 23.6422 25.7395 24 25.2987 24ZM28.4931 24H30.0903C30.5312 24 30.8889 23.6422 30.8889 23.2014C30.8889 22.7606 30.5312 22.4028 30.0903 22.4028H28.4931C28.0523 22.4028 27.6945 22.7606 27.6945 23.2014C27.6945 23.6422 28.0523 24 28.4931 24ZM34.882 24H33.2848C32.8439 24 32.4862 23.6422 32.4862 23.2014C32.4862 22.7606 32.8439 22.4028 33.2848 22.4028H34.882C35.3228 22.4028 35.6806 22.7606 35.6806 23.2014C35.6806 23.6422 35.3228 24 34.882 24ZM13.3195 26.3958C13.3195 26.8367 13.6773 27.1944 14.1181 27.1944H15.7153C16.1562 27.1944 16.5139 26.8367 16.5139 26.3958C16.5139 25.955 16.1562 25.5972 15.7153 25.5972H14.1181C13.6773 25.5972 13.3195 25.955 13.3195 26.3958ZM20.507 27.1944H18.9098C18.4689 27.1944 18.1112 26.8367 18.1112 26.3958C18.1112 25.955 18.4689 25.5972 18.9098 25.5972H20.507C20.9478 25.5972 21.3056 25.955 21.3056 26.3958C21.3056 26.8367 20.9478 27.1944 20.507 27.1944ZM23.7014 27.1944H25.2987C25.7395 27.1944 26.0973 26.8367 26.0973 26.3958C26.0973 25.955 25.7395 25.5972 25.2987 25.5972H23.7014C23.2606 25.5972 22.9028 25.955 22.9028 26.3958C22.9028 26.8367 23.2606 27.1944 23.7014 27.1944ZM30.0903 27.1944H28.4931C28.0523 27.1944 27.6945 26.8367 27.6945 26.3958C27.6945 25.955 28.0523 25.5972 28.4931 25.5972H30.0903C30.5312 25.5972 30.8889 25.955 30.8889 26.3958C30.8889 26.8367 30.5312 27.1944 30.0903 27.1944ZM33.2848 27.1944H34.882C35.3228 27.1944 35.6806 26.8367 35.6806 26.3958C35.6806 25.955 35.3228 25.5972 34.882 25.5972H33.2848C32.8439 25.5972 32.4862 25.955 32.4862 26.3958C32.4862 26.8367 32.8439 27.1944 33.2848 27.1944ZM14.1181 30.3889C13.6773 30.3889 13.3195 30.0311 13.3195 29.5903C13.3195 29.1494 13.6773 28.7917 14.1181 28.7917H15.7153C16.1562 28.7917 16.5139 29.1494 16.5139 29.5903C16.5139 30.0311 16.1562 30.3889 15.7153 30.3889H14.1181ZM18.9098 30.3889H20.507C20.9478 30.3889 21.3056 30.0311 21.3056 29.5903C21.3056 29.1494 20.9478 28.7917 20.507 28.7917H18.9098C18.4689 28.7917 18.1112 29.1494 18.1112 29.5903C18.1112 30.0311 18.4689 30.3889 18.9098 30.3889ZM25.2987 30.3889H23.7014C23.2606 30.3889 22.9028 30.0311 22.9028 29.5903C22.9028 29.1494 23.2606 28.7917 23.7014 28.7917H25.2987C25.7395 28.7917 26.0973 29.1494 26.0973 29.5903C26.0973 30.0311 25.7395 30.3889 25.2987 30.3889ZM28.4931 30.3889H30.0903C30.5312 30.3889 30.8889 30.0311 30.8889 29.5903C30.8889 29.1494 30.5312 28.7917 30.0903 28.7917H28.4931C28.0523 28.7917 27.6945 29.1494 27.6945 29.5903C27.6945 30.0311 28.0523 30.3889 28.4931 30.3889ZM34.882 30.3889H33.2848C32.8439 30.3889 32.4862 30.0311 32.4862 29.5903C32.4862 29.1494 32.8439 28.7917 33.2848 28.7917H34.882C35.3228 28.7917 35.6806 29.1494 35.6806 29.5903C35.6806 30.0311 35.3228 30.3889 34.882 30.3889ZM13.3195 32.7847C13.3195 33.2256 13.6773 33.5833 14.1181 33.5833H15.7153C16.1562 33.5833 16.5139 33.2256 16.5139 32.7847C16.5139 32.3439 16.1562 31.9861 15.7153 31.9861H14.1181C13.6773 31.9861 13.3195 32.3439 13.3195 32.7847ZM20.507 33.5833H18.9098C18.4689 33.5833 18.1112 33.2256 18.1112 32.7847C18.1112 32.3439 18.4689 31.9861 18.9098 31.9861H20.507C20.9478 31.9861 21.3056 32.3439 21.3056 32.7847C21.3056 33.2256 20.9478 33.5833 20.507 33.5833ZM23.7014 33.5833H25.2987C25.7395 33.5833 26.0973 33.2256 26.0973 32.7847C26.0973 32.3439 25.7395 31.9861 25.2987 31.9861H23.7014C23.2606 31.9861 22.9028 32.3439 22.9028 32.7847C22.9028 33.2256 23.2606 33.5833 23.7014 33.5833ZM30.0903 33.5833H28.4931C28.0523 33.5833 27.6945 33.2256 27.6945 32.7847C27.6945 32.3439 28.0523 31.9861 28.4931 31.9861H30.0903C30.5312 31.9861 30.8889 32.3439 30.8889 32.7847C30.8889 33.2256 30.5312 33.5833 30.0903 33.5833ZM33.2848 33.5833H34.882C35.3228 33.5833 35.6806 33.2256 35.6806 32.7847C35.6806 32.3439 35.3228 31.9861 34.882 31.9861H33.2848C32.8439 31.9861 32.4862 32.3439 32.4862 32.7847C32.4862 33.2256 32.8439 33.5833 33.2848 33.5833Z" fill="white"/>
</svg>