<svg width="36" height="36" viewBox="0 0 36 36" fill="none" xmlns="http://www.w3.org/2000/svg">
<!--<rect x="1" y="1" width="34" height="34" rx="4" stroke="#D5A845" stroke-width="2"/>-->
<path fill-rule="evenodd" clip-rule="evenodd" d="M15.7322 20.2404C16.5797 21.0879 17.6927 21.5117 18.8058 21.5119C18.8056 21.5119 18.8054 21.5119 18.8052 21.5119H18.8064C18.8062 21.5119 18.806 21.5119 18.8058 21.5119C19.9188 21.5117 21.0319 21.0879 21.8794 20.2404L26.1719 15.9479C27.8672 14.2538 27.866 11.496 26.1719 9.80076C24.4778 8.10548 21.72 8.10548 20.0247 9.80076L16.4028 13.4227C16.1726 13.6529 16.1726 14.0271 16.4028 14.2574C16.633 14.4876 17.0072 14.4876 17.2374 14.2574L20.8594 10.6354C22.0942 9.40055 24.1024 9.40055 25.3372 10.6354C26.5721 11.8703 26.5721 13.8784 25.3372 15.1133L21.0447 19.4058C19.8099 20.6406 17.8017 20.6406 16.5669 19.4058C16.3367 19.1755 15.9624 19.1755 15.7322 19.4058C15.502 19.636 15.502 20.0102 15.7322 20.2404ZM8.6489 27.3237C9.49654 28.1714 10.6098 28.5952 11.7231 28.5952H11.7219C12.8351 28.5952 13.9484 28.1714 14.7961 27.3237L18.418 23.7018C18.6482 23.4716 18.6482 23.0974 18.418 22.8671C18.1878 22.6369 17.8136 22.6369 17.5833 22.8671L13.9614 26.4891C12.7265 27.7239 10.7184 27.7239 9.48355 26.4891C8.24869 25.2542 8.24869 23.2461 9.48355 22.0112L13.7761 17.7187C15.0109 16.4839 17.019 16.4839 18.2539 17.7187C18.4841 17.9489 18.8583 17.9489 19.0886 17.7187C19.3188 17.4885 19.3188 17.1143 19.0886 16.8841C17.3945 15.1888 14.6367 15.1888 12.9414 16.8841L8.6489 21.1766C6.95362 22.8707 6.95362 25.6285 8.6489 27.3237Z" fill="white"/>
</svg>