<svg width="36" height="36" viewBox="0 0 37 36" fill="none" xmlns="http://www.w3.org/2000/svg">
<!--<rect x="1.5" y="1" width="34" height="34" rx="4" stroke="#D5A845" stroke-width="2"/>-->
<path fill-rule="evenodd" clip-rule="evenodd" d="M8.46663 14.4323C7.49031 14.4323 6.6958 13.6378 6.6958 12.6615C6.6958 11.6851 7.49031 10.8906 8.46663 10.8906C9.44295 10.8906 10.2375 11.6851 10.2375 12.6615C10.2375 13.6378 9.44295 14.4323 8.46663 14.4323ZM8.46663 12.0712C8.1408 12.0712 7.87636 12.3356 7.87636 12.6615C7.87636 12.9873 8.1408 13.2517 8.46663 13.2517C8.79247 13.2517 9.05691 12.9873 9.05691 12.6615C9.05691 12.3356 8.79247 12.0712 8.46663 12.0712ZM29.7166 13.2517H12.0083C11.6825 13.2517 11.418 12.9873 11.418 12.6615C11.418 12.3356 11.6825 12.0712 12.0083 12.0712H29.7166C30.0425 12.0712 30.3069 12.3356 30.3069 12.6615C30.3069 12.9873 30.0425 13.2517 29.7166 13.2517ZM12.0083 19.1545H29.7166C30.0425 19.1545 30.3069 18.8901 30.3069 18.5642C30.3069 18.2384 30.0425 17.974 29.7166 17.974H12.0083C11.6825 17.974 11.418 18.2384 11.418 18.5642C11.418 18.8901 11.6825 19.1545 12.0083 19.1545ZM12.0083 25.0573H29.7166C30.0425 25.0573 30.3069 24.7928 30.3069 24.467C30.3069 24.1412 30.0425 23.8767 29.7166 23.8767H12.0083C11.6825 23.8767 11.418 24.1412 11.418 24.467C11.418 24.7928 11.6825 25.0573 12.0083 25.0573ZM6.6958 18.5642C6.6958 19.5406 7.49031 20.3351 8.46663 20.3351C9.44295 20.3351 10.2375 19.5406 10.2375 18.5642C10.2375 17.5879 9.44295 16.7934 8.46663 16.7934C7.49031 16.7934 6.6958 17.5879 6.6958 18.5642ZM7.87636 18.5642C7.87636 18.2384 8.1408 17.974 8.46663 17.974C8.79247 17.974 9.05691 18.2384 9.05691 18.5642C9.05691 18.8901 8.79247 19.1545 8.46663 19.1545C8.1408 19.1545 7.87636 18.8901 7.87636 18.5642ZM8.46663 26.2378C7.49031 26.2378 6.6958 25.4433 6.6958 24.467C6.6958 23.4907 7.49031 22.6962 8.46663 22.6962C9.44295 22.6962 10.2375 23.4907 10.2375 24.467C10.2375 25.4433 9.44295 26.2378 8.46663 26.2378ZM8.46663 23.8767C8.1408 23.8767 7.87636 24.1412 7.87636 24.467C7.87636 24.7928 8.1408 25.0573 8.46663 25.0573C8.79247 25.0573 9.05691 24.7928 9.05691 24.467C9.05691 24.1412 8.79247 23.8767 8.46663 23.8767Z" fill="white"/>
</svg>