<svg width="36" height="36" viewBox="0 0 37 37" fill="none" xmlns="http://www.w3.org/2000/svg">
<!--<rect x="1.5" y="1.5" width="34" height="34" rx="4" stroke="#D5A845" stroke-width="2"/>-->
<path fill-rule="evenodd" clip-rule="evenodd" d="M29.5856 10.3256C28.9032 8.27738 27.9965 7.84766 27.3555 7.84766C27.3425 7.84766 27.3283 7.84766 27.3142 7.84884C26.6613 7.863 25.5008 8.20182 23.7631 8.71182C20.1222 9.77786 14.6208 11.3905 9.05569 11.3905C7.70986 11.3905 6.69458 13.1672 6.69458 15.5224C6.69458 17.8777 7.70986 19.6544 9.05569 19.6544C9.49132 19.6544 9.92694 19.6638 10.3602 19.6827L12.327 27.5075C12.5513 28.4 13.4474 29.0988 14.3682 29.0988H15.9183C16.4294 29.0988 16.8639 28.8863 17.1083 28.5145C17.3526 28.1426 17.3786 27.6609 17.1791 27.1911L14.1368 20.0511C17.839 20.5965 21.2461 21.5952 23.7631 22.3319C25.5008 22.8407 26.6613 23.1807 27.3142 23.1949C27.3283 23.1949 27.3413 23.1961 27.3555 23.1961C27.9953 23.1961 28.902 22.7663 29.5856 20.7181C30.0507 19.3215 30.3069 17.4763 30.3069 15.5224C30.3069 13.5686 30.0507 11.7234 29.5856 10.3268V10.3256ZM25.5846 15.5213C25.5846 14.9156 25.6106 14.323 25.6602 13.7552C26.2658 13.8165 26.7652 14.6004 26.7652 15.5213C26.7652 16.4421 26.267 17.2272 25.6602 17.2874C25.6106 16.7195 25.5846 16.1269 25.5846 15.5213ZM7.87632 15.5213C7.87632 13.7197 8.57521 12.5699 9.05687 12.5699C10.3968 12.5699 11.7296 12.4802 13.033 12.329C12.7532 13.2239 12.5985 14.3324 12.5985 15.5213C12.5985 16.7101 12.752 17.8186 13.033 18.7135C11.7296 18.5624 10.3968 18.4727 9.05687 18.4727C8.57521 18.4727 7.87632 17.3228 7.87632 15.5213ZM16.0942 27.6527C16.1426 27.766 16.139 27.8415 16.1249 27.8628C16.1107 27.884 16.0434 27.9171 15.9194 27.9171H14.3694C13.9928 27.9171 13.5654 27.5842 13.4733 27.2182L11.5986 19.7583C11.9941 19.7902 12.3884 19.8279 12.7792 19.8728L16.0942 27.6527ZM14.3564 18.8894C13.9975 18.0784 13.7791 16.8258 13.7791 15.5213C13.7791 14.1967 13.9916 12.9677 14.3552 12.1543C18.1153 11.5959 21.5519 10.5901 24.0948 9.84398C24.5847 9.69995 25.0522 9.563 25.4772 9.44377C25.3556 9.69759 25.2376 9.99036 25.1254 10.3256C24.6603 11.7222 24.4041 13.5674 24.4041 15.5213C24.4041 17.4751 24.6603 19.3203 25.1254 20.7169C25.2376 21.0522 25.3556 21.3449 25.4772 21.5988C25.0522 21.4795 24.5847 21.3426 24.0948 21.1986C21.5507 20.4536 18.1153 19.4466 14.3552 18.8882L14.3564 18.8894ZM28.4652 20.3438C28.0249 21.6661 27.5467 22.0143 27.3555 22.0143C27.1642 22.0143 26.6861 21.6649 26.2458 20.3438C26.0604 19.789 25.9117 19.1527 25.8031 18.4597C26.3768 18.3936 26.9163 18.0689 27.3094 17.5447C27.7203 16.997 27.9458 16.278 27.9458 15.5213C27.9458 14.7645 27.7191 14.0444 27.3094 13.4978C26.9163 12.9736 26.3768 12.649 25.8031 12.5829C25.9128 11.8911 26.0616 11.2536 26.2458 10.6987C26.6861 9.37648 27.1642 9.02703 27.3555 9.02703C27.5467 9.02703 28.0249 9.37648 28.4652 10.6975C28.8914 11.9772 29.1263 13.689 29.1263 15.5201C29.1263 17.3511 28.8914 19.0629 28.4652 20.3427V20.3438Z" fill="white"/>
</svg>